<?xml version="1.0" standalone="no"?>
<!DOCTYPE svg PUBLIC "-//W3C//DTD SVG 20010904//EN"
 "http://www.w3.org/TR/2001/REC-SVG-20010904/DTD/svg10.dtd">
<svg version="1.0" xmlns="http://www.w3.org/2000/svg"
 width="1200.000000pt" height="600.000000pt" viewBox="0 0 1200.000000 600.000000"
 preserveAspectRatio="xMidYMid meet">

<g transform="translate(0.000000,600.000000) scale(0.100000,-0.100000)"
fill="#000000" stroke="none">
<path d="M6165 5384 c-131 -48 -380 -177 -520 -269 -121 -80 -247 -184 -288
-238 -17 -23 -39 -38 -59 -42 -113 -23 -276 -69 -316 -89 -127 -64 -299 -269
-405 -481 -34 -68 -88 -217 -101 -281 -6 -28 -12 -32 -53 -38 -25 -3 -60 -6
-77 -6 -21 0 -45 -11 -70 -32 l-39 -32 5 32 5 32 -184 0 -183 0 0 65 0 65 178
0 178 0 24 33 c66 88 130 192 130 212 0 3 -927 5 -2060 5 l-2060 0 0 -695 0
-695 215 0 215 0 0 380 0 380 595 0 595 0 0 110 c0 91 3 110 15 110 13 0 15
-21 15 -125 l0 -125 -30 0 -30 0 0 -365 0 -365 215 0 215 0 0 380 0 380 460 0
c402 0 460 -2 460 -15 0 -12 -16 -15 -80 -15 l-80 0 0 -365 0 -365 215 0 215
0 0 680 c0 598 2 680 15 680 13 0 15 -40 15 -300 l0 -300 338 1 c185 1 377 4
426 8 l89 6 56 110 c73 143 103 171 236 224 105 41 125 47 125 35 0 -4 -25
-42 -56 -86 -72 -103 -138 -242 -163 -343 -18 -71 -36 -199 -56 -392 -6 -58
-9 -63 -31 -63 -13 0 -33 -9 -44 -20 -23 -23 -78 -118 -102 -175 -20 -50 -25
-38 -31 83 -2 51 -8 96 -12 100 -10 10 -547 16 -672 7 l-103 -7 0 -125 0 -126
393 6 c215 4 461 7 545 6 l153 0 -7 98 -6 98 41 60 c22 33 49 69 59 80 28 32
101 95 110 95 5 0 7 -57 4 -127 -9 -275 50 -525 161 -679 21 -31 41 -54 43
-52 2 2 6 74 9 158 5 131 26 394 40 492 48 361 132 574 329 833 l61 80 3 -242
2 -242 95 97 95 97 0 209 0 209 123 -6 c143 -6 235 -30 347 -88 52 -27 89 -39
116 -39 l41 0 7 99 c4 55 4 110 1 123 -6 22 -2 25 47 35 83 17 256 16 355 -2
144 -27 336 -77 453 -117 l65 -23 5 -80 c3 -44 11 -90 18 -102 23 -42 14 -59
-75 -138 -127 -111 -129 -112 -378 -119 -215 -6 -228 -7 -337 -26 -160 -29
-300 -102 -440 -228 -21 -19 -41 -32 -44 -29 -9 8 39 108 83 174 83 126 279
301 428 382 57 30 -109 -3 -249 -51 -97 -33 -235 -102 -311 -156 -138 -97
-274 -258 -354 -418 -100 -201 -131 -367 -131 -699 0 -384 47 -564 180 -688
46 -44 55 -49 57 -32 1 11 7 88 12 171 13 184 36 367 57 454 39 159 133 400
155 400 4 0 10 -26 14 -57 8 -77 43 -236 66 -298 49 -138 73 -195 129 -310
169 -343 399 -592 685 -738 75 -38 175 -80 175 -72 0 2 -20 35 -44 72 -65 103
-159 274 -220 406 l-55 117 384 0 385 0 0 125 0 125 -173 0 -173 0 -26 28
c-73 78 -224 327 -293 482 -92 209 -127 435 -85 546 14 35 -10 31 -110 -19
-117 -58 -182 -103 -275 -191 -44 -42 -84 -75 -88 -73 -5 1 17 53 48 115 46
92 69 126 133 190 120 123 212 159 432 168 233 9 299 28 435 123 74 52 231
208 276 273 52 76 59 111 28 145 -36 38 -131 100 -205 133 -85 39 -357 129
-509 170 -66 18 -123 35 -127 39 -4 3 -12 35 -17 71 -6 36 -17 88 -26 115 -14
48 -17 51 -78 77 -80 34 -248 83 -391 114 l-29 6 7 62 c6 57 48 222 96 376 11
36 20 68 20 73 0 11 -51 7 -95 -9z m-131 -243 c-37 -76 -57 -197 -50 -302 7
-113 10 -119 55 -119 59 0 200 -38 260 -71 68 -36 191 -144 191 -167 0 -10 -9
-23 -20 -30 -17 -10 -34 -5 -121 38 -130 64 -215 90 -293 90 -74 0 -186 -30
-269 -71 l-61 -31 25 -19 c13 -10 62 -41 109 -68 47 -28 92 -55 100 -59 9 -6
-146 -10 -388 -10 l-402 -1 26 34 c20 26 23 35 11 35 -12 0 -209 -42 -354 -75
-49 -11 -22 26 122 171 91 92 102 98 192 110 13 1 31 5 40 8 10 3 91 12 181
21 186 17 230 26 325 62 74 27 147 87 147 119 0 10 5 59 10 108 6 49 8 91 6
93 -6 6 -97 -45 -191 -107 -82 -53 -105 -64 -105 -48 0 20 191 205 248 239 85
52 216 116 224 110 4 -4 -4 -30 -18 -60z m-4114 -976 l0 -125 -30 0 c-29 0
-30 -1 -30 -50 l0 -50 -580 0 -580 0 0 65 0 65 595 0 595 0 0 110 c0 91 3 110
15 110 13 0 15 -21 15 -125z m3193 -92 c34 3 79 10 100 15 32 8 38 8 33 -4 -3
-9 1 -14 12 -14 9 0 -5 -12 -33 -26 -112 -57 -196 -120 -331 -247 -75 -70
-104 -90 -104 -69 0 31 137 265 245 418 7 11 11 2 13 -32 l3 -46 62 5z m-1903
-18 c0 -12 -16 -15 -80 -15 l-80 0 0 -50 0 -50 -380 0 -380 0 0 65 0 65 460 0
c402 0 460 -2 460 -15z m3343 -1478 c117 -120 223 -205 312 -250 28 -14 59
-35 70 -47 l20 -23 -54 7 c-66 9 -153 37 -247 82 -39 19 -83 34 -98 34 -31 0
-39 16 -67 140 -19 86 -23 130 -14 130 3 0 38 -33 78 -73z"/>
<path d="M6555 5175 c-254 -119 -242 -112 -254 -157 -7 -24 -14 -48 -17 -54
-3 -6 14 -16 38 -22 97 -25 171 -42 173 -40 1 2 24 53 50 113 26 61 53 122 60
137 20 41 3 48 -50 23z"/>
<path d="M6743 4619 c4 -13 7 -34 7 -46 0 -16 9 -25 35 -33 43 -14 55 -7 55
30 0 32 -24 54 -74 66 -27 6 -29 5 -23 -17z"/>
<path d="M7520 1675 l0 -695 135 0 135 0 0 380 0 380 460 0 460 0 0 -380 0
-380 135 0 135 0 0 695 0 695 -730 0 -730 0 0 -695z m1190 380 l0 -65 -460 0
-460 0 0 65 0 65 460 0 460 0 0 -65z"/>
<path d="M9110 1675 l0 -695 400 0 400 0 0 125 0 125 -265 0 -265 0 0 570 0
570 -135 0 -135 0 0 -695z"/>
<path d="M10040 1675 l0 -695 135 0 135 0 0 695 0 695 -135 0 -135 0 0 -695z"/>
<path d="M5930 1612 l0 -632 730 0 730 0 0 125 0 125 -595 0 -595 0 0 325 0
325 -33 37 c-63 72 -144 178 -190 252 l-47 75 0 -632z"/>
</g>
</svg>
